<svg width="21" height="21" viewBox="0 0 21 21" fill="none" xmlns="http://www.w3.org/2000/svg">
<path d="M20.2244 8.11198L17.3884 2.43992C17.3321 2.32716 17.2453 2.23242 17.1379 2.16642C17.0305 2.10043 16.9067 2.06582 16.7807 2.06651H3.54588C3.42051 2.06657 3.29764 2.10154 3.19102 2.16749C3.0844 2.23344 2.99825 2.32777 2.94221 2.43992L0.106183 8.11198C0.0592241 8.20567 0.0347189 8.30901 0.0346069 8.41381V15.4897C0.0355006 16.2991 0.357419 17.075 0.929733 17.6474C1.50205 18.2197 2.27802 18.5416 3.08739 18.5425H17.2392C18.0485 18.5416 18.8245 18.2197 19.3968 17.6474C19.9691 17.075 20.2911 16.2991 20.292 15.4897V8.41381C20.2931 8.30933 20.27 8.20601 20.2244 8.11198ZM3.96318 3.417H16.3634L18.5242 7.73857H13.9447C13.7656 7.73857 13.5938 7.80971 13.4672 7.93634C13.3405 8.06297 13.2694 8.23472 13.2694 8.41381V10.5746H7.05715V8.41381C7.05715 8.23472 6.98601 8.06297 6.85938 7.93634C6.73275 7.80971 6.56099 7.73857 6.38191 7.73857H1.8024L3.96318 3.417ZM17.2392 17.192H3.08739C2.63608 17.1915 2.2034 17.0119 1.88428 16.6928C1.56515 16.3737 1.38563 15.941 1.3851 15.4897V9.08906H5.70666V11.2498C5.70666 11.4289 5.77781 11.6007 5.90444 11.7273C6.03107 11.8539 6.20282 11.9251 6.38191 11.9251H13.9447C14.1237 11.9251 14.2955 11.8539 14.4221 11.7273C14.5488 11.6007 14.6199 11.4289 14.6199 11.2498V9.08906H18.9415V15.4897C18.9409 15.941 18.7614 16.3737 18.4423 16.6928C18.1232 17.0119 17.6905 17.1915 17.2392 17.192Z" fill="#008489"/>
</svg>
