<svg width="151" height="151" viewBox="0 0 151 151" fill="none" xmlns="http://www.w3.org/2000/svg">
<path d="M76.0002 123.002C75.5903 123.012 75.1828 122.937 74.8039 122.78C74.4249 122.624 74.083 122.389 73.8003 122.092L43.2062 89.2983C37.8676 83.4317 32.001 77.3598 32.001 67.6213C31.9511 61.9098 33.7089 56.3287 37.0228 51.6766C40.3367 47.0245 45.037 43.5396 50.4514 41.7205C55.1052 40.5767 59.9902 40.7985 64.5213 42.3591C69.0524 43.9198 73.0378 46.7533 76.0002 50.5203C78.9431 46.7431 82.9298 43.9126 87.4661 42.3796C92.0024 40.8466 96.8889 40.6787 101.52 41.8965C106.926 43.6777 111.627 47.1278 114.948 51.7504C118.268 56.373 120.037 61.9298 119.999 67.6213C119.999 77.4771 113.957 83.7544 108.736 89.2983C98.5571 100.239 88.4667 111.063 78.2589 121.946C77.9756 122.268 77.6287 122.528 77.24 122.71C76.8513 122.892 76.4292 122.991 76.0002 123.002V123.002ZM56.4939 46.7364C54.996 46.7347 53.5052 46.942 52.0647 47.3524C47.8937 48.8315 44.2863 51.5717 41.7424 55.193C39.1986 58.8142 37.8444 63.1372 37.8676 67.5626C37.8676 75.0132 42.3555 79.7944 47.4887 85.1623L76.0002 115.786L104.453 85.309C109.381 80.0584 114.045 75.1305 114.133 67.7093C114.166 63.2888 112.814 58.9689 110.268 55.3551C107.722 51.7413 104.109 49.0148 99.9358 47.5577V47.5577C96.3593 46.6742 92.6023 46.8592 89.13 48.0897C85.6576 49.3201 82.6224 51.542 80.4001 54.4802C79.8647 55.1211 79.1901 55.6313 78.4276 55.9719C77.665 56.3125 76.8348 56.4745 76.0002 56.4455C75.161 56.4445 74.3332 56.2509 73.5806 55.8797C72.828 55.5084 72.1706 54.9695 71.659 54.3042C69.8632 51.9833 67.567 50.0975 64.9413 48.7872C62.3156 47.4769 59.4281 46.7759 56.4939 46.7364V46.7364Z" fill="#A9A950"/>
<circle cx="75.5" cy="75.5" r="72.5" stroke="#A9A950" stroke-width="6"/>
</svg>
