<svg width="46" height="26" viewBox="0 0 46 26" fill="none" xmlns="http://www.w3.org/2000/svg">
<path d="M19.5128 3.40918L1.92701 12.6625L19.3169 22.1855L19.5128 3.40918Z" stroke="white"/>
<path d="M18.7361 6.37348L5.67413 13.113L18.5933 20.0529L18.7361 6.37348Z" stroke="white"/>
<path d="M21.007 3.41943L3.42115 12.6727L20.811 22.1957L21.007 3.41943Z" stroke="white"/>
<path d="M19.4812 6.37787L6.41925 13.1174L19.3384 20.0573L19.4812 6.37787Z" stroke="white"/>
<path d="M18.7657 3.40332L1.17994 12.6566L18.5698 22.1796L18.7657 3.40332Z" stroke="black"/>
<path d="M17.988 6.36713L4.92608 13.1067L17.8453 20.0466L17.988 6.36713Z" stroke="black"/>
<path d="M20.2609 3.41406L2.67506 12.6673L20.0649 22.1903L20.2609 3.41406Z" stroke="#00F0FF"/>
<path d="M20.4555 2.58534L3.40589 11.8307L20.2598 21.3376L20.4555 2.58534Z" stroke="black"/>
<path d="M22.5011 3.43164L4.91529 12.6849L22.3051 22.2079L22.5011 3.43164Z" stroke="black"/>
<path d="M20.9763 6.39106L7.91436 13.1306L20.8335 20.0705L20.9763 6.39106Z" stroke="black"/>
<path d="M18.0628 8.30649L8.334 13.4256L17.9544 18.6938L18.0628 8.30649Z" stroke="white"/>
<path d="M17.6042 10.0512L10.5499 13.691L17.5271 17.4389L17.6042 10.0512Z" stroke="white"/>
<path d="M18.9446 8.31332L9.21584 13.4324L18.8362 18.7007L18.9446 8.31332Z" stroke="white"/>
<path d="M18.0446 10.0546L10.9904 13.6944L17.9675 17.4423L18.0446 10.0546Z" stroke="white"/>
<path d="M17.6243 8.3016L7.89552 13.4207L17.5159 18.6889L17.6243 8.3016Z" stroke="black"/>
<path d="M17.1647 10.0478L10.1105 13.6875L17.0876 17.4355L17.1647 10.0478Z" stroke="black"/>
<path d="M18.5042 8.3099L8.77541 13.429L18.3958 18.6972L18.5042 8.3099Z" stroke="#00F0FF"/>
<path d="M18.619 7.82475L9.19667 12.9342L18.5109 18.188L18.619 7.82475Z" stroke="black"/>
<path d="M19.8264 8.31967L10.0977 13.4387L19.718 18.707L19.8264 8.31967Z" stroke="black"/>
<path d="M18.9274 10.0614L11.8732 13.7012L18.8503 17.4492L18.9274 10.0614Z" fill="#00FFFF" stroke="black"/>
<line y1="-0.5" x2="20.2394" y2="-0.5" transform="matrix(-0.0104355 0.999946 0.99997 0.00771118 22.6348 2.70215)" stroke="#404040"/>
<path d="M26.1636 22.5572L43.6519 13.1209L26.1636 3.77988L26.1636 22.5572Z" stroke="white"/>
<path d="M26.9095 19.5857L39.9004 12.7102L26.9095 5.9055L26.9095 19.5857Z" stroke="white"/>
<path d="M24.6695 22.5625L42.1578 13.1263L24.6695 3.78525L24.6695 22.5625Z" stroke="white"/>
<path d="M26.1634 19.5886L39.1543 12.7131L26.1634 5.90843L26.1634 19.5886Z" stroke="white"/>
<path d="M26.9107 22.5557L44.399 13.1194L26.9107 3.77841L26.9107 22.5557Z" stroke="black"/>
<path d="M27.6576 19.5837L40.6485 12.7082L27.6576 5.90355L27.6576 19.5837Z" stroke="black"/>
<path d="M25.4156 22.5606L42.9039 13.1243L25.4156 3.7833L25.4156 22.5606Z" stroke="#00F0FF"/>
<path d="M25.2296 23.3913L42.1818 13.9685L25.2296 4.63803L25.2296 23.3913Z" stroke="black"/>
<path d="M23.1753 22.5665L40.6636 13.1302L23.1753 3.78915L23.1753 22.5665Z" stroke="black"/>
<path d="M24.6693 19.5915L37.6602 12.7161L24.6693 5.91136L24.6693 19.5915Z" stroke="black"/>
<path d="M27.5621 17.6457L37.2369 12.4254L27.5621 7.25784V17.6457Z" stroke="white"/>
<path d="M28.0027 15.8959L35.0186 12.1828L28.0027 8.5078V15.8959Z" stroke="white"/>
<path d="M26.6802 17.6477L36.355 12.4274L26.6802 7.25979V17.6477Z" stroke="white"/>
<path d="M27.5623 15.8969L34.5782 12.1837L27.5623 8.50877V15.8969Z" stroke="white"/>
<path d="M28.0015 17.6457L37.6763 12.4254L28.0015 7.25784V17.6457Z" stroke="black"/>
<path d="M28.4431 15.895L35.459 12.1818L28.4431 8.50682V15.895Z" stroke="black"/>
<path d="M27.1207 17.6467L36.7955 12.4264L27.1207 7.25881V17.6467Z" stroke="#00F0FF"/>
<path d="M27.0116 18.1328L36.3801 12.9254L27.0116 7.76896V18.1328Z" stroke="black"/>
<path d="M25.7984 17.6506L35.4732 12.4303L25.7984 7.26272V17.6506Z" stroke="black"/>
<path d="M26.6804 15.8998L33.6963 12.1867L26.6804 8.5117V15.8998Z" fill="#00FFFF" stroke="black"/>
<line y1="-0.5" x2="20.2394" y2="-0.5" transform="matrix(0 -1 -0.999996 0.00272447 23.0488 23.2974)" stroke="#404040"/>
</svg>
