<svg width="22" height="22" viewBox="0 0 22 22" fill="none" xmlns="http://www.w3.org/2000/svg">
<path d="M21.148 8.16492C21.1445 8.09232 21.1288 8.02065 21.1015 7.95242V6.03992C21.1015 5.47633 20.8564 4.93583 20.42 4.53732C19.9837 4.1388 19.3919 3.91492 18.7748 3.91492H15.6726V3.20659C15.6726 3.01872 15.5909 2.83856 15.4455 2.70572C15.3 2.57288 15.1028 2.49825 14.8971 2.49825C14.6914 2.49825 14.4941 2.57288 14.3487 2.70572C14.2032 2.83856 14.1215 3.01872 14.1215 3.20659V3.91492H7.91712V3.20659C7.91712 3.01872 7.83541 2.83856 7.68996 2.70572C7.54452 2.57288 7.34725 2.49825 7.14156 2.49825C6.93588 2.49825 6.73861 2.57288 6.59317 2.70572C6.44772 2.83856 6.36601 3.01872 6.36601 3.20659V3.91492H3.26381C2.64674 3.91492 2.05495 4.1388 1.61862 4.53732C1.18229 4.93583 0.937158 5.47633 0.937158 6.03992V7.95242C0.90644 8.01975 0.890625 8.09197 0.890625 8.16492C0.890625 8.23786 0.90644 8.31009 0.937158 8.37742V17.3733C0.937158 17.9368 1.18229 18.4773 1.61862 18.8759C2.05495 19.2744 2.64674 19.4983 3.26381 19.4983H18.7748C19.3919 19.4983 19.9837 19.2744 20.42 18.8759C20.8564 18.4773 21.1015 17.9368 21.1015 17.3733V8.37742C21.1288 8.30918 21.1445 8.23751 21.148 8.16492V8.16492ZM3.26381 5.33159H6.36601V6.03992C6.36601 6.22778 6.44772 6.40795 6.59317 6.54079C6.73861 6.67362 6.93588 6.74825 7.14156 6.74825C7.34725 6.74825 7.54452 6.67362 7.68996 6.54079C7.83541 6.40795 7.91712 6.22778 7.91712 6.03992V5.33159H14.1215V6.03992C14.1215 6.22778 14.2032 6.40795 14.3487 6.54079C14.4941 6.67362 14.6914 6.74825 14.8971 6.74825C15.1028 6.74825 15.3 6.67362 15.4455 6.54079C15.5909 6.40795 15.6726 6.22778 15.6726 6.03992V5.33159H18.7748C18.9805 5.33159 19.1778 5.40621 19.3232 5.53905C19.4687 5.67189 19.5504 5.85206 19.5504 6.03992V7.45659H2.48826V6.03992C2.48826 5.85206 2.56997 5.67189 2.71541 5.53905C2.86086 5.40621 3.05812 5.33159 3.26381 5.33159V5.33159ZM18.7748 18.0816H3.26381C3.05812 18.0816 2.86086 18.007 2.71541 17.8741C2.56997 17.7413 2.48826 17.5611 2.48826 17.3733V8.87325H19.5504V17.3733C19.5504 17.5611 19.4687 17.7413 19.3232 17.8741C19.1778 18.007 18.9805 18.0816 18.7748 18.0816Z" fill="#008489"/>
</svg>
