<svg width="22" height="19" viewBox="0 0 22 19" fill="none" xmlns="http://www.w3.org/2000/svg">
<path d="M3.44114 5.49992L3.44141 13.4999L11.4411 18.4999L10.9414 0.999877L3.44114 5.49992Z" fill="url(#paint0_linear)"/>
<path d="M0.442389 5.99987L0.441405 12.9999L2.9413 12.9999L2.94191 5.99991L0.442389 5.99987Z" fill="url(#paint1_linear)"/>
<path d="M3.06948 5.07855H0.000116348V7.7464L0 8L0.000116348 9.5V11.2536V13.9215H3.06916L11.4423 19V0L3.06948 5.07855ZM0.000116348 10.9161V10.5V8.08389V10.9161ZM2.9423 13H1.4423H0.442301V11V7.7464V6H1.4423H2.9519L2.9423 13ZM10.9423 18L3.4423 13.5V5.5L10.9423 1V18Z" fill="white"/>
<path fill-rule="evenodd" clip-rule="evenodd" d="M18.1713 10L21.9623 13.791C22.0096 13.8383 22.0096 13.915 21.9623 13.9623C21.915 14.0096 21.8383 14.0096 21.791 13.9623L18 10.1713L14.209 13.9623C14.0948 14.0766 13.9234 13.9052 14.0377 13.791L17.8287 10L14.0377 6.20899C13.9904 6.16168 13.9904 6.08498 14.0377 6.03767C14.085 5.99036 14.1617 5.99036 14.209 6.03767L18 9.82867L21.791 6.03767C21.9052 5.92345 22.0766 6.09478 21.9623 6.20899L18.1713 10ZM20.3373 13.9623L18 11.6251L15.6627 13.9623C15.6154 14.0096 15.5387 14.0096 15.4914 13.9623C15.4441 13.915 15.4441 13.8383 15.4914 13.791L17.9143 11.3681C17.9616 11.3208 18.0384 11.3208 18.0857 11.3681L20.5086 13.791C20.5559 13.8383 20.5559 13.915 20.5086 13.9623C20.4613 14.0096 20.3846 14.0096 20.3373 13.9623ZM15.6627 6.03767L18 8.37492L20.3373 6.03767C20.3846 5.99036 20.4613 5.99036 20.5086 6.03767C20.5559 6.08498 20.5559 6.16168 20.5086 6.20899L18.0857 8.63191C18.0384 8.67922 17.9616 8.67922 17.9143 8.63191L15.4914 6.20899C15.4441 6.16168 15.4441 6.08498 15.4914 6.03767C15.5387 5.99036 15.6154 5.99036 15.6627 6.03767ZM14.0377 12.3373L16.3749 10L14.0377 7.66274C13.9904 7.61543 13.9904 7.53873 14.0377 7.49142C14.085 7.44411 14.1617 7.44411 14.209 7.49142L16.6319 9.91434C16.6792 9.96165 16.6792 10.0384 16.6319 10.0857L14.209 12.5086C14.1617 12.5559 14.085 12.5559 14.0377 12.5086C13.9904 12.4613 13.9904 12.3846 14.0377 12.3373ZM21.9623 7.66274L19.6251 10L21.9623 12.3373C22.0096 12.3846 22.0096 12.4613 21.9623 12.5086C21.915 12.5559 21.8383 12.5559 21.791 12.5086L19.3681 10.0857C19.3208 10.0384 19.3208 9.96165 19.3681 9.91434L21.791 7.49142C21.8383 7.44411 21.915 7.44411 21.9623 7.49142C22.0096 7.53873 22.0096 7.61543 21.9623 7.66274Z" fill="white"/>
<path d="M10.0565 15.3423L4.55664 12.3423L3.9993 12.4647L9.5228 15.6538L10.0565 15.3423Z" fill="white"/>
<defs>
<linearGradient id="paint0_linear" x1="-5.41647" y1="10.0839" x2="15.2226" y2="10.3114" gradientUnits="userSpaceOnUse">
<stop offset="0.296875" stop-color="#FF00E5" stop-opacity="0.57"/>
<stop offset="1" stop-color="#4A4A4A" stop-opacity="0"/>
</linearGradient>
<linearGradient id="paint1_linear" x1="-8.27389" y1="10.084" x2="12.3652" y2="10.3115" gradientUnits="userSpaceOnUse">
<stop offset="0.296875" stop-color="#006761"/>
<stop offset="1" stop-color="#4A4A4A" stop-opacity="0"/>
</linearGradient>
</defs>
</svg>
