<svg width="22" height="19" viewBox="0 0 22 19" fill="none" xmlns="http://www.w3.org/2000/svg">
<path d="M3.44114 5.49992L3.44141 13.4999L11.4411 18.4999L10.9414 0.999877L3.44114 5.49992Z" fill="url(#paint0_linear)"/>
<path d="M0.442389 5.99987L0.441405 12.9999L2.9413 12.9999L2.94191 5.99991L0.442389 5.99987Z" fill="url(#paint1_linear)"/>
<path d="M3.06948 5.07855H0.000116348V7.7464L0 8L0.000116348 9.5V11.2536V13.9215H3.06916L11.4423 19V0L3.06948 5.07855ZM0.000116348 10.9161V10.5V8.08389V10.9161ZM2.9423 13H1.4423H0.442301V11V7.7464V6H1.4423H2.9519L2.9423 13ZM10.9423 18L3.4423 13.5V5.5L10.9423 1V18Z" fill="white"/>
<path d="M10.0565 15.3423L4.55664 12.3423L3.9993 12.4647L9.5228 15.6538L10.0565 15.3423Z" fill="white"/>
<path d="M19.463 16L18.8519 15.3761C20.3148 13.945 21.1111 12.0183 21.1111 9.98165C21.1111 7.9633 20.3148 6.05505 18.8704 4.6055L19.5 4C21.1111 5.59633 22 7.72477 22 9.98165C21.9815 12.2752 21.0741 14.4037 19.463 16ZM19.2778 10C19.2778 8.45872 18.6667 7.00917 17.5741 5.92661L16.963 6.53211C17.8889 7.46789 18.4074 8.69725 18.4074 10C18.4074 11.3211 17.8889 12.5688 16.9444 13.5046L17.5556 14.1284C18.6481 13.0092 19.2778 11.5596 19.2778 10ZM16.5741 10C16.5741 9.17431 16.2593 8.40367 15.6667 7.81651L15.037 8.42202C15.463 8.84404 15.6852 9.41284 15.6852 10C15.6852 10.6055 15.4444 11.1743 15 11.5963L15.6111 12.2202C16.2407 11.6147 16.5741 10.844 16.5741 10Z" fill="white"/>
<defs>
<linearGradient id="paint0_linear" x1="-5.41647" y1="10.0839" x2="15.2226" y2="10.3114" gradientUnits="userSpaceOnUse">
<stop offset="0.296875" stop-color="#FF00E5" stop-opacity="0.57"/>
<stop offset="1" stop-color="#4A4A4A" stop-opacity="0"/>
</linearGradient>
<linearGradient id="paint1_linear" x1="-8.27389" y1="10.084" x2="12.3652" y2="10.3115" gradientUnits="userSpaceOnUse">
<stop offset="0.296875" stop-color="#006761"/>
<stop offset="1" stop-color="#4A4A4A" stop-opacity="0"/>
</linearGradient>
</defs>
</svg>
