<svg width="443" height="82" viewBox="0 0 443 82" fill="none" xmlns="http://www.w3.org/2000/svg">
<line x1="7" y1="80" x2="34" y2="80" stroke="#C7C796" stroke-width="4"/>
<path d="M3.18467 50V14.3317H14.1595C17.2952 14.3317 20.0961 15.0422 22.5621 16.463C25.0445 17.8675 26.9798 19.8763 28.368 22.4894C29.7562 25.0861 30.4503 28.0421 30.4503 31.3575V32.9988C30.4503 36.3141 29.7644 39.262 28.3925 41.8424C27.037 44.4228 25.118 46.4234 22.6356 47.8442C20.1532 49.2651 17.3523 49.9837 14.233 50H3.18467ZM10.5339 20.2846V44.0961H14.086C16.9604 44.0961 19.157 43.1571 20.6758 41.2789C22.1947 39.4008 22.9704 36.7142 23.0031 33.2193V31.333C23.0031 27.7073 22.2518 24.9636 20.7493 23.1018C19.2468 21.2237 17.0502 20.2846 14.1595 20.2846H10.5339ZM43.6299 50H36.2807V14.3317H43.6299V50ZM68.9603 40.642C68.9603 39.2538 68.4703 38.1922 67.4904 37.4573C66.5105 36.7061 64.7467 35.9221 62.199 35.1056C59.6512 34.2727 57.6343 33.4561 56.1481 32.6558C52.0979 30.4674 50.0727 27.5195 50.0727 23.8123C50.0727 21.8851 50.6117 20.1703 51.6896 18.6678C52.7838 17.149 54.3435 15.9649 56.3686 15.1157C58.41 14.2664 60.6965 13.8418 63.2279 13.8418C65.7756 13.8418 68.0457 14.3072 70.0381 15.2382C72.0306 16.1527 73.5739 17.4511 74.6682 19.1332C75.7787 20.8154 76.334 22.7262 76.334 24.8656H68.9848C68.9848 23.2325 68.4703 21.9668 67.4414 21.0685C66.4125 20.154 64.9672 19.6967 63.1054 19.6967C61.3089 19.6967 59.9125 20.0805 58.9163 20.8481C57.9201 21.5993 57.422 22.5955 57.422 23.8367C57.422 24.9963 58.0017 25.968 59.1613 26.7519C60.3372 27.5359 62.0602 28.2708 64.3302 28.9567C68.5111 30.2142 71.557 31.7739 73.4678 33.6357C75.3786 35.4975 76.334 37.8166 76.334 40.593C76.334 43.6797 75.1663 46.1049 72.8309 47.8687C70.4954 49.6162 67.3516 50.4899 63.3993 50.4899C60.6556 50.4899 58.1569 49.9918 55.9031 48.9956C53.6494 47.983 51.9264 46.603 50.7342 44.8555C49.5583 43.1081 48.9704 41.0829 48.9704 38.7802H56.3441C56.3441 42.7161 58.6958 44.6841 63.3993 44.6841C65.1468 44.6841 66.5105 44.3329 67.4904 43.6307C68.4703 42.9121 68.9603 41.9158 68.9603 40.642ZM109.332 38.1187C109.054 41.9567 107.634 44.978 105.069 47.1828C102.522 49.3876 99.1574 50.4899 94.9765 50.4899C90.4037 50.4899 86.8025 48.9548 84.1732 45.8844C81.5601 42.7978 80.2536 38.5679 80.2536 33.1948V31.0145C80.2536 27.5849 80.8578 24.5635 82.0664 21.9504C83.2749 19.3374 84.9979 17.3368 87.2353 15.9486C89.4891 14.5441 92.1022 13.8418 95.0745 13.8418C99.1901 13.8418 102.505 14.9442 105.02 17.149C107.536 19.3537 108.989 22.4486 109.381 26.4335H102.032C101.852 24.1307 101.207 22.4649 100.096 21.436C99.0023 20.3908 97.3283 19.8682 95.0745 19.8682C92.6248 19.8682 90.7875 20.7501 89.5626 22.5139C88.3541 24.2614 87.7334 26.9806 87.7008 30.6715V33.3662C87.7008 37.2205 88.2806 40.0377 89.4401 41.8179C90.616 43.598 92.4615 44.4881 94.9765 44.4881C97.2466 44.4881 98.9369 43.9736 100.047 42.9447C101.174 41.8995 101.819 40.2909 101.983 38.1187H109.332ZM143.457 32.9743C143.457 36.4856 142.836 39.5641 141.595 42.2098C140.354 44.8555 138.574 46.897 136.255 48.3342C133.952 49.7714 131.306 50.4899 128.318 50.4899C125.361 50.4899 122.724 49.7795 120.405 48.3587C118.086 46.9378 116.289 44.9127 115.015 42.2833C113.742 39.6376 113.096 36.5999 113.08 33.1703V31.4065C113.08 27.8952 113.709 24.8085 114.966 22.1464C116.24 19.468 118.029 17.4184 120.331 15.9976C122.65 14.5604 125.296 13.8418 128.269 13.8418C131.241 13.8418 133.878 14.5604 136.181 15.9976C138.5 17.4184 140.289 19.468 141.546 22.1464C142.82 24.8085 143.457 27.887 143.457 31.382V32.9743ZM136.01 31.3575C136.01 27.6175 135.34 24.7758 134.001 22.8324C132.662 20.8889 130.751 19.9172 128.269 19.9172C125.802 19.9172 123.9 20.8807 122.561 22.8079C121.221 24.7187 120.544 27.5277 120.527 31.235V32.9743C120.527 36.6162 121.197 39.4416 122.536 41.4504C123.875 43.4592 125.802 44.4636 128.318 44.4636C130.784 44.4636 132.678 43.5 134.001 41.5729C135.324 39.6294 135.993 36.8041 136.01 33.0968V31.3575ZM161.438 41.1564L169.522 14.3317H177.704L165.284 50H157.616L145.245 14.3317H153.403L161.438 41.1564ZM202.545 34.5421H188.434V44.0961H204.994V50H181.085V14.3317H204.945V20.2846H188.434V28.7852H202.545V34.5421ZM222.51 36.9429H216.655V50H209.306V14.3317H222.559C226.773 14.3317 230.023 15.2708 232.309 17.149C234.596 19.0271 235.739 21.681 235.739 25.1106C235.739 27.544 235.208 29.5773 234.146 31.2105C233.101 32.8273 231.509 34.1175 229.369 35.0811L237.086 49.657V50H229.198L222.51 36.9429ZM216.655 30.99H222.584C224.429 30.99 225.858 30.5245 226.871 29.5936C227.883 28.6464 228.39 27.348 228.39 25.6986C228.39 24.0164 227.908 22.6935 226.944 21.73C225.997 20.7664 224.535 20.2846 222.559 20.2846H216.655V30.99ZM281.622 39.7111L286.424 14.3317H293.749L285.836 50H278.438L272.632 26.1395L266.826 50H259.428L251.515 14.3317H258.84L263.666 39.6621L269.545 14.3317H275.768L281.622 39.7111ZM319.201 34.5421H305.091V44.0961H321.651V50H297.742V14.3317H321.602V20.2846H305.091V28.7852H319.201V34.5421ZM347.423 34.5421H333.312V44.0961H349.872V50H325.963V14.3317H349.823V20.2846H333.312V28.7852H347.423V34.5421ZM365.355 35.6935L361.533 39.8091V50H354.184V14.3317H361.533V30.5L364.767 26.066L373.855 14.3317H382.895L370.23 30.1816L383.262 50H374.517L365.355 35.6935ZM393.38 44.0961H408.985V50H386.03V14.3317H393.38V44.0961ZM418.661 30.4021L426.084 14.3317H434.119L422.409 37.0654V50H414.937V37.0654L403.228 14.3317H411.287L418.661 30.4021Z" fill="#E7E7E7"/>
</svg>
