<svg width="327" height="22" viewBox="0 0 327 22" fill="none" xmlns="http://www.w3.org/2000/svg">
<path d="M2.74121 14.6191H7.25977V16H1.01172V6.04688H2.74121V14.6191ZM10.4111 16H8.68848V6.04688H10.4111V16ZM19.5234 7.44141H16.4199V16H14.7041V7.44141H11.6279V6.04688H19.5234V7.44141ZM26.6533 11.5566H22.5654V14.6191H27.3438V16H20.8359V6.04688H27.2959V7.44141H22.5654V10.1895H26.6533V11.5566ZM32.4092 12.165H30.4814V16H28.752V6.04688H32.252C33.4004 6.04688 34.2868 6.30436 34.9111 6.81934C35.5355 7.33431 35.8477 8.07943 35.8477 9.05469C35.8477 9.72005 35.6859 10.2783 35.3623 10.7295C35.0433 11.1761 34.5967 11.5202 34.0225 11.7617L36.2578 15.9111V16H34.4053L32.4092 12.165ZM30.4814 10.7773H32.2588C32.8421 10.7773 33.2979 10.6315 33.626 10.3398C33.9541 10.0436 34.1182 9.6403 34.1182 9.12988C34.1182 8.59668 33.9655 8.18424 33.6602 7.89258C33.3594 7.60091 32.9082 7.45052 32.3066 7.44141H30.4814V10.7773ZM43.0596 13.6826H39.2041L38.3975 16H36.5996L40.3594 6.04688H41.9111L45.6777 16H43.873L43.0596 13.6826ZM39.6895 12.2881H42.5742L41.1318 8.15918L39.6895 12.2881ZM53.1836 7.44141H50.0801V16H48.3643V7.44141H45.2881V6.04688H53.1836V7.44141ZM61.7764 6.04688V12.6982C61.7764 13.7555 61.4368 14.5941 60.7578 15.2139C60.0833 15.8291 59.1833 16.1367 58.0576 16.1367C56.9183 16.1367 56.0137 15.8337 55.3438 15.2275C54.6738 14.6169 54.3389 13.7715 54.3389 12.6914V6.04688H56.0615V12.7051C56.0615 13.3704 56.2301 13.8786 56.5674 14.2295C56.9046 14.5804 57.4014 14.7559 58.0576 14.7559C59.3883 14.7559 60.0537 14.054 60.0537 12.6504V6.04688H61.7764ZM67.2861 12.165H65.3584V16H63.6289V6.04688H67.1289C68.2773 6.04688 69.1637 6.30436 69.7881 6.81934C70.4124 7.33431 70.7246 8.07943 70.7246 9.05469C70.7246 9.72005 70.5628 10.2783 70.2393 10.7295C69.9202 11.1761 69.4736 11.5202 68.8994 11.7617L71.1348 15.9111V16H69.2822L67.2861 12.165ZM65.3584 10.7773H67.1357C67.7191 10.7773 68.1748 10.6315 68.5029 10.3398C68.8311 10.0436 68.9951 9.6403 68.9951 9.12988C68.9951 8.59668 68.8424 8.18424 68.5371 7.89258C68.2363 7.60091 67.7852 7.45052 67.1836 7.44141H65.3584V10.7773ZM78.1826 11.5566H74.0947V14.6191H78.873V16H72.3652V6.04688H78.8252V7.44141H74.0947V10.1895H78.1826V11.5566Z" fill="black"/>
<line x1="91" y1="12.5" x2="327" y2="12.5" stroke="black"/>
</svg>
