<?xml version="1.0" standalone="no"?>
<!DOCTYPE svg PUBLIC "-//W3C//DTD SVG 20010904//EN"
 "http://www.w3.org/TR/2001/REC-SVG-20010904/DTD/svg10.dtd">
<svg version="1.0" xmlns="http://www.w3.org/2000/svg"
 width="386.000000pt" height="386.000000pt" viewBox="0 0 386.000000 386.000000"
 preserveAspectRatio="xMidYMid meet">
<metadata>
Created by potrace 1.14, written by Peter Selinger 2001-2017
</metadata>
<g transform="translate(0.000000,386.000000) scale(0.100000,-0.100000)"
fill="#000000" stroke="none">
<path d="M1721 3849 c-274 -29 -565 -128 -798 -272 -766 -475 -1104 -1395
-826 -2249 47 -145 174 -396 260 -517 79 -110 246 -287 350 -373 512 -418
1195 -546 1825 -341 145 47 396 174 517 260 110 79 287 246 373 350 417 511
546 1197 343 1821 -41 124 -143 339 -211 444 -161 251 -391 471 -646 622 -354
208 -773 298 -1187 255z m129 -1409 c0 -16 5 -30 10 -30 6 0 10 14 10 30 0 41
36 42 51 3 21 -54 23 -93 6 -93 -9 0 -18 4 -21 8 -6 10 -72 9 -82 -1 -4 -4 5
-7 19 -7 23 0 27 -4 27 -30 0 -27 -3 -30 -30 -30 -27 0 -30 3 -30 30 0 17 -4
30 -10 30 -5 0 -10 7 -10 15 0 8 -4 15 -10 15 -5 0 -10 -4 -10 -10 0 -5 -7
-10 -15 -10 -8 0 -15 9 -15 20 0 17 7 20 40 20 22 0 40 -4 40 -10 0 -5 7 -10
15 -10 8 0 15 5 15 10 0 6 -7 10 -15 10 -10 0 -15 11 -15 35 0 24 5 35 15 35
10 0 15 -10 15 -30z m132 -2 c4 -46 28 -49 28 -4 0 25 4 36 15 36 10 0 15 -10
15 -30 0 -16 4 -30 9 -30 6 0 11 -14 13 -32 3 -30 4 -31 21 -14 9 10 17 23 16
29 0 9 -2 8 -6 0 -11 -28 -23 -11 -23 32 0 38 3 45 20 45 16 0 20 -7 22 -37
l1 -38 4 38 c3 29 9 37 24 37 14 0 19 -7 19 -30 0 -16 5 -30 10 -30 6 0 10
-14 10 -32 0 -18 9 -41 20 -53 24 -25 17 -65 -11 -65 -11 0 -19 7 -19 15 0 8
-4 15 -10 15 -5 0 -10 -7 -10 -15 0 -8 -7 -15 -15 -15 -9 0 -15 9 -15 21 0 15
-5 20 -22 17 -15 -2 -22 -9 -22 -21 1 -10 -5 -17 -17 -17 -10 0 -19 7 -19 15
0 8 -4 15 -10 15 -5 0 -10 -7 -10 -15 0 -8 -7 -15 -15 -15 -23 0 -18 40 9 65
23 21 23 22 5 46 -15 20 -19 21 -19 7 0 -29 -29 -21 -36 10 -3 15 -10 37 -15
50 -12 31 -12 32 10 32 15 0 21 -8 23 -32z m289 2 c14 -37 27 -39 31 -3 2 17
10 29 21 31 13 3 17 -3 17 -27 0 -17 5 -31 10 -31 6 0 10 14 10 30 0 20 5 30
15 30 12 0 15 -13 15 -60 0 -46 -3 -60 -14 -60 -8 0 -17 4 -20 9 -3 5 -26 4
-53 -1 -31 -7 -48 -7 -50 -1 -2 6 -16 8 -31 5 -24 -5 -26 -4 -13 12 12 14 12
16 -3 10 -13 -5 -16 0 -16 28 0 19 -5 39 -12 46 -9 9 -1 12 36 12 43 0 48 -2
57 -30z m189 -15 c0 -33 -4 -45 -15 -45 -11 0 -15 12 -15 45 0 33 4 45 15 45
11 0 15 -12 15 -45z m58 -3 c3 -37 1 -42 -17 -42 -18 0 -21 6 -21 46 0 38 3
45 18 42 12 -2 18 -15 20 -46z m200 18 c16 -27 21 -30 72 -30 59 0 71 -5 87
-33 7 -15 23 -19 66 -20 44 -2 61 -7 81 -26 14 -14 26 -28 26 -33 0 -11 -51
-10 -88 3 -35 12 -72 -2 -72 -26 0 -8 -9 -15 -20 -15 -11 0 -20 6 -20 13 0 9
-2 9 -8 0 -9 -14 -85 -14 -94 0 -6 9 -8 9 -8 0 0 -7 -9 -13 -20 -13 -24 0 -25
8 -3 32 9 11 30 18 51 18 18 0 50 7 69 17 31 14 33 17 17 26 -22 12 -74 15
-74 5 0 -5 -9 -8 -20 -8 -11 0 -20 4 -20 9 0 4 -11 6 -24 4 -21 -4 -24 -2 -19
16 3 12 -4 34 -17 53 -12 18 -19 24 -15 13 18 -48 18 -65 0 -65 -14 0 -15 -6
-10 -32 4 -18 11 -34 16 -36 5 -2 9 -15 9 -28 0 -17 -6 -24 -20 -24 -12 0 -20
7 -21 18 -1 16 -2 16 -6 0 -2 -10 -14 -18 -25 -18 -19 0 -20 4 -14 42 4 23 11
45 16 48 5 3 5 12 0 20 -7 10 -10 11 -10 3 0 -7 -9 -13 -20 -13 -11 0 -20 5
-20 10 0 6 -7 10 -15 10 -8 0 -15 9 -15 20 0 22 20 26 38 8 9 -9 12 -9 12 1 0
10 9 12 30 8 32 -7 39 3 15 23 -26 21 -17 30 30 30 41 0 48 -4 63 -30z m212
-15 c0 -33 -4 -45 -15 -45 -11 0 -15 12 -15 45 0 33 4 45 15 45 11 0 15 -12
15 -45z m50 0 c0 -33 -4 -45 -15 -45 -11 0 -15 12 -15 45 0 33 4 45 15 45 11
0 15 -12 15 -45z m70 0 c0 -33 -4 -45 -15 -45 -11 0 -15 12 -15 45 0 33 4 45
15 45 11 0 15 -12 15 -45z m50 0 c0 -33 -4 -45 -15 -45 -11 0 -15 12 -15 45 0
33 4 45 15 45 11 0 15 -12 15 -45z m70 0 c0 -33 -4 -45 -15 -45 -11 0 -15 12
-15 45 0 33 4 45 15 45 11 0 15 -12 15 -45z m60 0 c0 -38 -3 -45 -20 -45 -17
0 -20 7 -20 45 0 38 3 45 20 45 17 0 20 -7 20 -45z m-1662 -48 c2 -19 -1 -27
-12 -27 -11 0 -16 10 -16 31 0 38 24 35 28 -4z m132 3 c0 -31 -16 -41 -26 -15
-8 19 2 45 16 45 5 0 10 -13 10 -30z m-186 4 c9 -22 8 -24 -9 -24 -8 0 -15 9
-15 20 0 24 15 27 24 4z m136 -4 c0 -11 -7 -20 -15 -20 -8 0 -15 9 -15 20 0
11 7 20 15 20 8 0 15 -9 15 -20z m-811 -60 c10 -30 9 -30 -25 -30 -31 0 -34 2
-34 30 0 25 4 30 24 30 18 0 27 -8 35 -30z m231 0 c0 -27 -3 -30 -30 -30 -27
0 -30 3 -30 30 0 27 3 30 30 30 27 0 30 -3 30 -30z m339 19 c17 -6 36 -19 41
-29 9 -16 0 -17 -115 -16 l-125 0 0 28 0 28 84 0 c45 0 97 -5 115 -11z m261
-19 c0 -28 -3 -30 -35 -30 -32 0 -35 2 -35 30 0 28 3 30 35 30 32 0 35 -2 35
-30z m1698 -27 c24 -24 25 -28 9 -31 -10 -2 -24 2 -32 8 -9 7 -15 8 -15 3 0
-14 -83 -13 -92 1 -6 8 -8 7 -8 -1 0 -7 -9 -13 -20 -13 -25 0 -26 12 -2 33 15
14 33 18 115 25 10 1 30 -10 45 -25z m-944 1 c9 -8 16 -19 16 -24 0 -13 -84
-10 -93 4 -6 8 -10 8 -14 -1 -2 -7 -13 -13 -23 -13 -10 0 -21 6 -24 13 -5 10
-7 10 -12 0 -10 -23 -34 -14 -34 12 0 25 1 25 84 25 64 0 88 -4 100 -16z m76
-9 c0 -16 -6 -25 -15 -25 -9 0 -15 9 -15 25 0 16 6 25 15 25 9 0 15 -9 15 -25z
m60 0 c0 -18 -5 -25 -20 -25 -15 0 -20 7 -20 25 0 18 5 25 20 25 15 0 20 -7
20 -25z m540 0 c0 -18 -5 -25 -20 -25 -15 0 -20 7 -20 25 0 18 5 25 20 25 15
0 20 -7 20 -25z m50 0 c0 -18 -5 -25 -20 -25 -15 0 -20 7 -20 25 0 18 5 25 20
25 15 0 20 -7 20 -25z m-2205 -300 c34 -104 64 -197 67 -205 4 -8 4 78 1 193
l-6 207 31 0 32 0 0 -300 0 -300 30 0 c26 0 30 -4 30 -26 0 -26 -1 -27 -46
-20 -26 3 -55 6 -65 6 -12 0 -19 7 -19 20 0 11 4 20 9 20 8 0 -153 547 -164
558 -3 3 -4 -120 -3 -274 l3 -279 38 -3 c32 -3 37 -7 37 -28 0 -32 -37 -33
-50 -1 -7 17 -9 18 -9 5 -1 -26 -48 -24 -56 2 -3 11 -11 20 -16 20 -11 0 -13
583 -2 594 4 4 28 6 52 4 l45 -3 61 -190z m327 108 l3 -88 47 -3 c70 -5 88 18
88 108 l0 70 35 0 c33 0 35 -2 35 -32 -1 -54 -20 -122 -41 -144 -17 -18 -18
-23 -5 -33 27 -22 37 -77 44 -233 l7 -153 88 -3 88 -3 -21 29 c-34 46 -40 93
-40 340 l0 233 33 -3 32 -3 5 -257 c4 -226 7 -260 22 -278 22 -25 59 -26 89
-1 24 19 24 20 27 280 l4 261 29 0 29 0 0 -242 c0 -134 -5 -259 -10 -279 -15
-55 -50 -82 -115 -87 -30 -2 -55 -8 -55 -12 0 -17 -58 -30 -135 -30 -74 0 -87
3 -112 24 l-28 24 -3 176 c-3 134 -7 178 -18 187 -7 6 -37 12 -66 13 l-53 1 0
-185 0 -185 27 -3 c25 -3 48 -35 35 -48 -3 -3 -32 -2 -66 2 l-61 7 0 318 0
319 30 0 29 0 3 -87z m773 51 c4 -26 27 -58 82 -117 99 -106 123 -157 123
-264 0 -89 -10 -126 -42 -160 l-21 -23 51 0 c45 0 52 -3 52 -19 0 -29 -14 -33
-75 -26 -37 5 -55 12 -55 21 0 22 -77 18 -107 -6 -21 -16 -41 -20 -104 -20
-80 0 -124 12 -133 36 -4 11 18 14 116 14 l121 0 -21 23 c-32 35 -43 74 -49
184 l-6 103 36 0 37 0 0 -87 c0 -112 13 -161 47 -174 37 -14 75 8 86 51 14 53
3 159 -21 205 -11 22 -48 67 -82 100 -68 67 -100 119 -100 165 0 26 3 30 29
30 25 0 30 -5 36 -36z m195 -14 l0 -50 -35 0 c-35 0 -35 0 -35 43 0 51 4 57
42 57 27 0 28 -2 28 -50z m420 -250 l0 -300 100 0 101 0 -21 28 c-34 46 -40
93 -40 340 l0 232 29 0 29 0 4 -247 c5 -265 11 -298 55 -309 31 -8 48 0 70 32
16 25 18 58 22 276 l3 248 30 0 29 0 -3 -257 c-3 -224 -5 -262 -21 -290 -21
-39 -63 -63 -112 -63 -21 0 -48 -9 -64 -21 -25 -18 -40 -21 -118 -18 -77 4
-93 7 -120 29 l-32 25 0 298 -1 297 30 0 30 0 0 -300z m-230 -265 c0 -35 0
-35 45 -35 38 0 45 -3 45 -19 0 -28 -12 -32 -74 -25 -46 6 -56 10 -56 25 0 11
-7 19 -15 19 -10 0 -15 11 -15 35 0 33 2 35 35 35 33 0 35 -2 35 -35z m-1800
-55 c0 -15 -7 -20 -25 -20 -18 0 -25 5 -25 20 0 15 7 20 25 20 18 0 25 -5 25
-20z m70 -5 c0 -21 -5 -25 -30 -25 -25 0 -30 4 -30 25 0 21 5 25 30 25 25 0
30 -4 30 -25z m-100 -145 c0 -29 -4 -40 -15 -40 -11 0 -15 11 -15 40 0 29 4
40 15 40 11 0 15 -11 15 -40z m76 -4 c13 -36 13 -38 -6 -33 -11 3 -20 1 -20
-4 0 -5 -7 -9 -15 -9 -11 0 -15 12 -15 46 0 41 2 45 22 42 14 -2 25 -15 34
-42z m54 22 c0 -13 3 -33 6 -46 5 -17 3 -21 -9 -16 -8 3 -18 16 -21 29 -3 13
-9 30 -12 39 -4 12 0 16 15 16 15 0 21 -6 21 -22z m58 -20 c-4 -58 -25 -61
-30 -3 -3 38 0 45 15 45 15 0 18 -7 15 -42z m62 2 c0 -29 -4 -40 -15 -40 -11
0 -15 11 -15 40 0 29 4 40 15 40 11 0 15 -11 15 -40z m60 -5 c0 -38 -3 -45
-20 -45 -17 0 -20 7 -20 45 0 38 3 45 20 45 17 0 20 -7 20 -45z m105 33 c13
-37 9 -72 -7 -76 -15 -3 -18 4 -18 37 0 29 -4 41 -14 41 -11 0 -13 -9 -9 -35
4 -28 2 -35 -11 -35 -11 0 -16 9 -16 28 0 15 -5 33 -12 40 -9 9 -1 12 35 12
29 0 49 -5 52 -12z m75 -28 c0 -33 -3 -40 -20 -40 -17 0 -20 7 -20 40 0 33 3
40 20 40 17 0 20 -7 20 -40z m50 -6 c0 -38 -3 -45 -17 -42 -13 2 -19 15 -21
46 -3 37 -1 42 17 42 18 0 21 -6 21 -46z m70 6 c0 -33 -3 -40 -20 -40 -17 0
-20 7 -20 40 0 33 3 40 20 40 17 0 20 -7 20 -40z m50 -5 c0 -33 -4 -45 -15
-45 -11 0 -15 12 -15 45 0 33 4 45 15 45 11 0 15 -12 15 -45z m204 23 c8 -13
17 -33 21 -45 5 -18 2 -23 -13 -23 -12 0 -22 9 -25 23 -4 12 -13 31 -22 42
l-17 20 7 -20 c16 -46 17 -55 4 -55 -8 0 -24 18 -37 40 l-23 40 45 0 c36 0 48
-5 60 -22z m216 -18 c0 -33 -3 -40 -20 -40 -17 0 -20 7 -20 40 0 33 3 40 20
40 17 0 20 -7 20 -40z m50 -6 c0 -38 -3 -45 -17 -42 -13 2 -19 15 -21 46 -3
37 -1 42 17 42 18 0 21 -6 21 -46z m70 6 c0 -33 -3 -40 -20 -40 -17 0 -20 7
-20 40 0 33 3 40 20 40 17 0 20 -7 20 -40z m50 -6 c0 -38 -3 -45 -17 -42 -13
2 -19 15 -21 46 -3 37 -1 42 17 42 18 0 21 -6 21 -46z m70 6 c0 -29 -4 -40
-15 -40 -11 0 -15 11 -15 40 0 29 4 40 15 40 11 0 15 -11 15 -40z m50 -5 c0
-33 -4 -45 -15 -45 -11 0 -15 12 -15 45 0 33 4 45 15 45 11 0 15 -12 15 -45z
m-602 -23 c3 -17 -2 -22 -17 -22 -16 0 -21 6 -21 26 0 33 33 30 38 -4z m-58 3
c0 -8 -7 -15 -15 -15 -8 0 -15 7 -15 15 0 8 7 15 15 15 8 0 15 -7 15 -15z"/>
<path d="M2218 2430 c2 -16 8 -30 13 -30 5 0 9 14 9 30 0 18 -5 30 -13 30 -9
0 -12 -10 -9 -30z"/>
<path d="M2300 2390 c0 -5 7 -10 16 -10 8 0 12 5 9 10 -3 6 -10 10 -16 10 -5
0 -9 -4 -9 -10z"/>
</g>
</svg>
