<svg width="63" height="23" viewBox="0 0 63 23" fill="none" xmlns="http://www.w3.org/2000/svg">
<path d="M3.27514 3.5645L7.01367 12.8951L10.7522 3.5645H12.7079V15H11.1999V10.5468L11.3413 5.74007L7.58702 15H6.43247L2.68609 5.76363L2.83531 10.5468V15H1.32734V3.5645H3.27514ZM23.4208 3.5645V11.34C23.4156 12.4186 23.0752 13.3009 22.3998 13.9868C21.7296 14.6727 20.8185 15.0576 19.6666 15.1414L19.266 15.1571C18.0146 15.1571 17.0171 14.8194 16.2736 14.1439C15.5301 13.4685 15.1531 12.5391 15.1426 11.3557V3.5645H16.6349V11.3086C16.6349 12.1359 16.8627 12.7799 17.3182 13.2407C17.7737 13.6962 18.423 13.924 19.266 13.924C20.1195 13.924 20.7714 13.6962 21.2217 13.2407C21.6772 12.7852 21.905 12.1437 21.905 11.3164V3.5645H23.4208ZM29.17 9.90272C27.8767 9.53096 26.9342 9.07542 26.3425 8.53611C25.7561 7.99156 25.4628 7.32135 25.4628 6.52547C25.4628 5.62488 25.8215 4.88136 26.5389 4.29492C27.2614 3.70325 28.1987 3.40741 29.3506 3.40741C30.136 3.40741 30.835 3.55926 31.4476 3.86295C32.0655 4.16664 32.542 4.58552 32.8771 5.1196C33.2174 5.65367 33.3876 6.23749 33.3876 6.87105H31.8718C31.8718 6.1799 31.6518 5.63797 31.212 5.24526C30.7722 4.84732 30.1517 4.64835 29.3506 4.64835C28.6071 4.64835 28.0259 4.81329 27.607 5.14316C27.1934 5.46779 26.9865 5.92071 26.9865 6.50191C26.9865 6.96792 27.1829 7.36324 27.5756 7.68787C27.9735 8.00727 28.6464 8.30049 29.5941 8.56753C30.547 8.83457 31.2906 9.1304 31.8246 9.45504C32.3639 9.77443 32.7619 10.1488 33.0185 10.5782C33.2803 11.0075 33.4112 11.5128 33.4112 12.094C33.4112 13.0208 33.0499 13.7643 32.3273 14.3246C31.6047 14.8796 30.6387 15.1571 29.4291 15.1571C28.6437 15.1571 27.9107 15.0079 27.23 14.7094C26.5493 14.4057 26.0231 13.9921 25.6513 13.4685C25.2848 12.9449 25.1016 12.3506 25.1016 11.6856H26.6174C26.6174 12.3767 26.8713 12.9239 27.3792 13.3271C27.8924 13.725 28.5757 13.924 29.4291 13.924C30.225 13.924 30.835 13.7617 31.2591 13.437C31.6833 13.1124 31.8953 12.67 31.8953 12.1097C31.8953 11.5495 31.699 11.1175 31.3063 10.8138C30.9136 10.5049 30.2015 10.2012 29.17 9.90272ZM41.815 9.71422H36.8591V13.7669H42.6161V15H35.3511V3.5645H42.5376V4.80544H36.8591V8.48113H41.815V9.71422ZM46.1112 15H44.6032V3.5645H46.1112V15ZM52.2452 9.90272C50.9519 9.53096 50.0094 9.07542 49.4177 8.53611C48.8313 7.99156 48.5381 7.32135 48.5381 6.52547C48.5381 5.62488 48.8967 4.88136 49.6141 4.29492C50.3366 3.70325 51.2739 3.40741 52.4258 3.40741C53.2112 3.40741 53.9102 3.55926 54.5229 3.86295C55.1407 4.16664 55.6172 4.58552 55.9523 5.1196C56.2926 5.65367 56.4628 6.23749 56.4628 6.87105H54.947C54.947 6.1799 54.7271 5.63797 54.2872 5.24526C53.8474 4.84732 53.2269 4.64835 52.4258 4.64835C51.6823 4.64835 51.1011 4.81329 50.6822 5.14316C50.2686 5.46779 50.0618 5.92071 50.0618 6.50191C50.0618 6.96792 50.2581 7.36324 50.6508 7.68787C51.0487 8.00727 51.7216 8.30049 52.6693 8.56753C53.6223 8.83457 54.3658 9.1304 54.8999 9.45504C55.4392 9.77443 55.8371 10.1488 56.0937 10.5782C56.3555 11.0075 56.4864 11.5128 56.4864 12.094C56.4864 13.0208 56.1251 13.7643 55.4025 14.3246C54.6799 14.8796 53.7139 15.1571 52.5044 15.1571C51.719 15.1571 50.9859 15.0079 50.3052 14.7094C49.6245 14.4057 49.0983 13.9921 48.7266 13.4685C48.36 12.9449 48.1768 12.3506 48.1768 11.6856H49.6926C49.6926 12.3767 49.9466 12.9239 50.4545 13.3271C50.9676 13.725 51.6509 13.924 52.5044 13.924C53.3002 13.924 53.9102 13.7617 54.3344 13.437C54.7585 13.1124 54.9705 12.67 54.9705 12.1097C54.9705 11.5495 54.7742 11.1175 54.3815 10.8138C53.9888 10.5049 53.2767 10.2012 52.2452 9.90272Z" fill="black"/>
<line x1="0.670166" y1="20.8315" x2="13" y2="20.8315" stroke="#BABA7C" stroke-width="2.57116"/>
</svg>
