<svg width="17" height="14" viewBox="0 0 17 14" fill="none" xmlns="http://www.w3.org/2000/svg">
<path d="M16.9594 1.67935C16.9607 1.43268 16.9088 1.18879 16.8077 0.965184C16.7065 0.741582 16.5584 0.54382 16.3742 0.386101C16.1899 0.228383 15.974 0.114621 15.742 0.052988C15.51 -0.00864533 15.2676 -0.0166211 15.0322 0.0296332L8.47971 1.32435L1.92722 0.0505157C1.69185 0.00426148 1.44944 0.0122372 1.21741 0.0738705C0.985378 0.135504 0.769487 0.249265 0.58524 0.406984C0.400992 0.564703 0.252961 0.762465 0.151777 0.986067C0.0505926 1.20967 -0.00123292 1.45356 2.22669e-05 1.70023V10.9512C-0.00196141 11.3414 0.128821 11.72 0.369678 12.0213C0.610536 12.3227 0.946271 12.5277 1.31863 12.6009L8.41885 14H8.58114L15.6814 12.6009C16.0537 12.5277 16.3895 12.3227 16.6303 12.0213C16.8712 11.72 17.002 11.3414 17 10.9512L16.9594 1.67935ZM0.811476 10.9512V1.67935C0.811476 1.45781 0.896968 1.24535 1.04915 1.0887C1.20132 0.932054 1.40772 0.844049 1.62293 0.844049H1.78522L8.07399 2.097V13.0812L1.46064 11.7656C1.27803 11.7272 1.11382 11.6253 0.995607 11.477C0.87739 11.3287 0.81237 11.143 0.811476 10.9512ZM16.1682 10.9512C16.1673 11.143 16.1023 11.3287 15.9841 11.477C15.8659 11.6253 15.7017 11.7272 15.5191 11.7656L8.88544 13.0812V2.097L15.1945 0.864932C15.3121 0.840225 15.4335 0.842669 15.5501 0.872089C15.6666 0.901508 15.7754 0.95717 15.8685 1.03507C15.9616 1.11296 16.0368 1.21115 16.0886 1.32256C16.1405 1.43397 16.1677 1.55582 16.1682 1.67935V10.9512Z" fill="white"/>
</svg>
