<svg width="80" height="81" viewBox="0 0 80 81" fill="none" xmlns="http://www.w3.org/2000/svg">
<path d="M62.2028 0.027639L46.734 2.62139C46.3306 2.6955 45.9596 2.89187 45.6715 3.18389L0.577786 48.2776C0.207609 48.6521 0 49.1574 0 49.6839C0 50.2104 0.207609 50.7157 0.577786 51.0901L28.8903 79.4339C29.0763 79.6219 29.2977 79.7711 29.5418 79.873C29.7859 79.9749 30.0477 80.0273 30.3122 80.0273C30.5766 80.0273 30.8385 79.9749 31.0825 79.873C31.3266 79.7711 31.548 79.6219 31.734 79.4339L76.8278 34.3401C77.1255 34.0437 77.3223 33.661 77.3903 33.2464L79.9528 17.8089C80.0058 17.4935 79.9823 17.1699 79.8845 16.8654C79.7866 16.5609 79.6171 16.2844 79.3903 16.0589L73.0778 9.74639L77.3278 5.49639C77.6171 5.21661 77.8153 4.85606 77.8964 4.46186C77.9776 4.06767 77.938 3.65815 77.7827 3.28685C77.6274 2.91554 77.3637 2.59971 77.0261 2.38063C76.6885 2.16156 76.2926 2.04942 75.8903 2.05889C75.3679 2.07952 74.8743 2.30386 74.5153 2.68389L70.2653 6.90264L63.9528 0.590139C63.7273 0.363294 63.4507 0.193826 63.1462 0.0959526C62.8417 -0.00192121 62.5182 -0.0253474 62.2028 0.027639V0.027639ZM61.8278 4.15264L75.859 18.1526L73.5153 31.9651L30.2965 75.1839L4.79654 49.6839L48.0153 6.46514L61.8278 4.15264ZM61.2653 12.2151C59.5865 12.2155 57.9119 12.8497 56.6403 14.1214C54.0971 16.6646 54.0981 20.8292 56.6403 23.3714C59.1824 25.9135 63.3471 25.9147 65.8903 23.3714C68.4335 20.8282 68.4325 16.6635 65.8903 14.1214C64.6192 12.8503 62.944 12.2148 61.2653 12.2151ZM61.2653 16.1839C61.9174 16.1838 62.5708 16.4269 63.0778 16.9339C64.0917 17.9478 64.0921 19.5446 63.0778 20.5589C62.0635 21.5732 60.4667 21.5728 59.4528 20.5589C58.4389 19.545 58.4385 17.9482 59.4528 16.9339C59.9599 16.4267 60.6132 16.184 61.2653 16.1839Z" fill="white"/>
</svg>
