<svg width="88" height="83" viewBox="0 0 88 83" fill="none" xmlns="http://www.w3.org/2000/svg">
<path d="M44.0002 82.0016C43.5903 82.0122 43.1828 81.9368 42.8039 81.7802C42.4249 81.6235 42.083 81.3892 41.8003 81.0923L11.2062 48.2983C5.86759 42.4317 0.00103377 36.3598 0.00103377 26.6213C-0.0488659 20.9098 1.70886 15.3287 5.02278 10.6766C8.3367 6.02448 13.037 2.53959 18.4514 0.720458C23.1052 -0.423269 27.9902 -0.201528 32.5213 1.35914C37.0524 2.9198 41.0378 5.75325 44.0002 9.5203C46.9431 5.74308 50.9298 2.91256 55.4661 1.37961C60.0024 -0.153352 64.8889 -0.321344 69.5198 0.896455C74.9255 2.6777 79.6269 6.12779 82.9476 10.7504C86.2683 15.373 88.037 20.9298 87.9994 26.6213C87.9994 36.4771 81.9569 42.7544 76.7356 48.2983C66.5571 59.2394 56.4667 70.0632 46.2589 80.9456C45.9756 81.268 45.6287 81.5282 45.24 81.7099C44.8513 81.8917 44.4292 81.991 44.0002 82.0016V82.0016ZM24.4939 5.73637C22.996 5.7347 21.5052 5.94203 20.0647 6.35235C15.8937 7.83151 12.2863 10.5717 9.74242 14.193C7.19859 17.8142 5.8444 22.1372 5.86759 26.5626C5.86759 34.0132 10.3555 38.7944 15.4887 44.1623L44.0002 74.7858L72.453 44.309C77.3809 39.0584 82.0449 34.1305 82.1329 26.7093C82.1656 22.2888 80.8143 17.9689 78.2683 14.3551C75.7223 10.7413 72.1093 8.01477 67.9358 6.55768V6.55768C64.3593 5.67425 60.6023 5.85921 57.13 7.08966C53.6576 8.32011 50.6224 10.542 48.4001 13.4802C47.8647 14.1211 47.1901 14.6313 46.4276 14.9719C45.665 15.3125 44.8348 15.4745 44.0002 15.4455C43.161 15.4445 42.3332 15.2509 41.5806 14.8797C40.828 14.5084 40.1706 13.9695 39.659 13.3042C37.8632 10.9833 35.567 9.0975 32.9413 7.78719C30.3156 6.47688 27.4281 5.77587 24.4939 5.73637V5.73637Z" fill="white"/>
</svg>
