<svg width="15" height="16" viewBox="0 0 15 16" fill="none" xmlns="http://www.w3.org/2000/svg">
<path d="M7.223 0.0906996L0.177548 5.4239C0.0670938 5.5069 -0.00054218 5.64183 3.27437e-06 5.77805V15.5556C2.60016e-05 15.7883 0.216549 16 0.454549 16H5.22727C5.46527 16 5.6818 15.7883 5.68182 15.5556V12.4444C5.68182 11.4519 6.48487 10.6667 7.5 10.6667C8.51514 10.6667 9.31818 11.4519 9.31818 12.4444V15.5556C9.31821 15.7883 9.53473 16 9.77273 16H14.5455C14.7835 16 15 15.7883 15 15.5556V5.77805C15 5.64183 14.9329 5.5069 14.8225 5.4239L7.777 0.0906996C7.60723 -0.0393226 7.37025 -0.0207893 7.223 0.0906996V0.0906996ZM7.5 1.00041L14.0909 5.99331V15.1111H10.2273V12.4444C10.2273 10.9748 9.00305 9.77785 7.5 9.77785C5.99696 9.77785 4.77273 10.9748 4.77273 12.4444V15.1111H0.909094V5.99331L7.5 1.00041Z" fill="white"/>
</svg>
