<svg width="17" height="18" viewBox="0 0 17 18" fill="none" xmlns="http://www.w3.org/2000/svg">
<path d="M15.9803 12.1571C16.5534 10.1084 16.3169 7.90793 15.3229 6.03971C14.3288 4.17149 12.6586 2.78853 10.6796 2.19502C10.6614 1.60647 10.4227 1.04834 10.0141 0.638694C9.60542 0.229046 9.05889 0 8.49005 0C7.92121 0 7.37467 0.229046 6.96603 0.638694C6.5574 1.04834 6.31871 1.60647 6.30044 2.19502C4.32743 2.7957 2.6644 4.18059 1.67492 6.04693C0.685444 7.91328 0.450016 10.1092 1.0201 12.1548C0.776902 12.314 0.56637 12.5212 0.40053 12.7646C0.23469 13.008 0.116788 13.2829 0.0535576 13.5735C-0.00967292 13.864 -0.0169942 14.1647 0.0320115 14.4582C0.0810171 14.7517 0.18539 15.0324 0.339171 15.2841C0.492952 15.5359 0.69313 15.7538 0.928275 15.9255C1.16342 16.0972 1.42893 16.2192 1.70964 16.2847C1.99035 16.3502 2.28076 16.3577 2.5643 16.307C2.84784 16.2563 3.11895 16.1482 3.36215 15.989C4.78144 17.2849 6.60886 18 8.50134 18C10.3938 18 12.2212 17.2849 13.6405 15.989C14.1314 16.3102 14.7254 16.4164 15.2919 16.2842C15.8584 16.152 16.351 15.7923 16.6612 15.2841C16.9715 14.776 17.0741 14.1611 16.9464 13.5746C16.8187 12.9882 16.4712 12.4783 15.9803 12.1571V12.1571ZM8.50021 0.65664C8.79959 0.656177 9.09237 0.747654 9.34151 0.919495C9.59064 1.09134 9.78494 1.33582 9.89982 1.62201C10.0147 1.90819 10.045 2.22323 9.98685 2.52724C9.92872 2.83125 9.78478 3.11058 9.57325 3.32989C9.36172 3.54919 9.0921 3.69861 8.79851 3.75924C8.50492 3.81988 8.20055 3.78899 7.92392 3.6705C7.64729 3.55201 7.41083 3.35124 7.24446 3.09359C7.07809 2.83594 6.98928 2.53299 6.98928 2.22308C6.98988 1.80823 7.14918 1.41051 7.43234 1.11695C7.7155 0.823382 8.09946 0.657876 8.50021 0.65664V0.65664ZM0.645196 14.0929C0.645196 13.7831 0.733943 13.4803 0.900214 13.2227C1.06648 12.9651 1.30281 12.7643 1.57931 12.6457C1.85581 12.5272 2.16006 12.4962 2.45359 12.5566C2.74712 12.617 3.01674 12.7662 3.22837 12.9853C3.43999 13.2044 3.58411 13.4835 3.64249 13.7873C3.70088 14.0912 3.67091 14.4062 3.55638 14.6924C3.44185 14.9786 3.2479 15.2233 2.99906 15.3954C2.75022 15.5675 2.45766 15.6594 2.15838 15.6594C1.75706 15.6594 1.37218 15.4943 1.0884 15.2006C0.804621 14.9068 0.645196 14.5084 0.645196 14.0929V14.0929ZM3.86354 15.5214C4.12199 15.1885 4.28426 14.7867 4.33165 14.3625C4.37903 13.9382 4.30959 13.5087 4.13133 13.1235C3.95308 12.7383 3.67328 12.4131 3.32419 12.1855C2.97511 11.9578 2.57097 11.8369 2.15838 11.8368C1.9872 11.8373 1.81667 11.8585 1.65022 11.8999C1.15323 10.0544 1.37147 8.08102 2.25849 6.39953C3.14552 4.71805 4.63133 3.46121 6.39982 2.89641C6.53889 3.35798 6.81682 3.76145 7.19305 4.04794C7.56929 4.33444 8.02412 4.48896 8.49118 4.48896C8.95823 4.48896 9.41307 4.33444 9.7893 4.04794C10.1655 3.76145 10.4435 3.35798 10.5825 2.89641C12.3535 3.45484 13.8434 4.70781 14.7342 6.38784C15.625 8.06786 15.8461 10.0418 15.3502 11.8882C14.9047 11.776 14.4364 11.8115 14.0114 11.9896C13.5864 12.1677 13.2262 12.4796 12.9816 12.881C12.7371 13.2825 12.6205 13.7534 12.6483 14.2271C12.6762 14.7009 12.8471 15.1536 13.1369 15.5214C11.8476 16.6716 10.2022 17.3042 8.50021 17.3042C6.79824 17.3042 5.15286 16.6716 3.86354 15.5214ZM14.842 15.6711C14.5428 15.6711 14.2502 15.5792 14.0014 15.4071C13.7525 15.235 13.5586 14.9903 13.444 14.7041C13.3295 14.4179 13.2995 14.1029 13.3579 13.799C13.4163 13.4952 13.5604 13.2161 13.7721 12.997C13.9837 12.7779 14.2533 12.6287 14.5468 12.5683C14.8404 12.5078 15.1446 12.5389 15.4211 12.6574C15.6976 12.776 15.9339 12.9768 16.1002 13.2344C16.2665 13.492 16.3552 13.7948 16.3552 14.1046C16.3522 14.518 16.1915 14.9135 15.908 15.2047C15.6246 15.496 15.2414 15.6594 14.842 15.6594V15.6711Z" fill="white"/>
</svg>
