<svg width="100" height="100" viewBox="0 0 100 100" fill="none" xmlns="http://www.w3.org/2000/svg">
<path d="M23.5788 50.3125C23.5788 55.6017 19.3005 59.8762 14.0394 59.8762C8.77826 59.8762 4.5 55.6017 4.5 50.3125C4.5 45.0233 8.77826 40.7488 14.0394 40.7488C19.3005 40.7488 23.5788 45.0233 23.5788 50.3125ZM59.1379 86.1877C59.0058 91.3594 54.7793 95.5 49.6017 95.5C44.3406 95.5 40.0623 91.2255 40.0623 85.9363C40.0623 80.6471 44.3406 76.3726 49.6017 76.3726C49.6346 76.3726 49.6672 76.3724 49.6994 76.3718C49.7703 76.3724 49.8412 76.3726 49.912 76.3726C54.5306 76.3726 58.8702 75.1826 62.6427 73.0925C60.4224 76.9491 59.1484 81.4205 59.1379 86.1877ZM85.4743 59.8729C80.8557 59.8729 76.516 61.063 72.7433 63.1533C74.8835 59.4359 76.1444 55.1474 76.2424 50.5732C76.2463 50.4896 76.2485 50.4026 76.2485 50.3125C76.2485 50.2791 76.2482 50.2463 76.2477 50.2139C76.2482 50.1422 76.2485 50.0704 76.2485 49.9984C76.2485 45.5712 75.1589 41.3977 73.2331 37.733C76.8897 39.6588 81.0543 40.7488 85.4743 40.7488C85.5456 40.7488 85.6168 40.7485 85.6879 40.748C85.7208 40.7485 85.7541 40.7488 85.7879 40.7488C91.049 40.7488 95.3273 45.0233 95.3273 50.3125C95.3273 55.5741 91.0933 59.8317 85.8703 59.8758C85.7384 59.8739 85.6064 59.8729 85.4743 59.8729ZM49.912 23.6241C49.7803 23.6241 49.6487 23.6251 49.5174 23.627C44.2952 23.5819 40.0623 19.3246 40.0623 14.0637C40.0623 8.77447 44.3406 4.5 49.6017 4.5C54.8349 4.5 59.0957 8.72931 59.1407 13.9793C59.1388 14.1109 59.1378 14.2426 59.1378 14.3745C59.1378 18.8017 60.2275 22.9751 62.1533 26.6399C58.4967 24.7141 54.332 23.6241 49.912 23.6241Z" stroke="white" stroke-width="9"/>
</svg>
