<svg width="100" height="100" viewBox="0 0 100 100" fill="none" xmlns="http://www.w3.org/2000/svg">
<path fill-rule="evenodd" clip-rule="evenodd" d="M14.0394 64.3762C21.7931 64.3762 28.0788 58.0796 28.0788 50.3125C28.0788 42.5453 21.7931 36.2488 14.0394 36.2488C6.28565 36.2488 0 42.5453 0 50.3125C0 58.0796 6.28565 64.3762 14.0394 64.3762ZM63.6378 86.2429C63.475 93.8685 57.2532 100 49.6017 100C41.848 100 35.5623 93.7035 35.5623 85.9363C35.5623 78.1692 41.848 71.8726 49.6017 71.8726C49.6207 71.8726 49.6402 71.8722 49.6602 71.8712C49.744 71.8722 49.828 71.8726 49.912 71.8726C61.838 71.8726 71.5309 62.2957 71.7449 50.4003C71.7473 50.3698 71.7485 50.3405 71.7485 50.3125C71.7485 50.2937 71.748 50.2744 71.747 50.2546C71.748 50.1693 71.7485 50.0839 71.7485 49.9984C71.7485 37.9175 61.972 28.1241 49.912 28.1241C49.7873 28.1241 49.6628 28.1251 49.5385 28.1272C41.8138 28.0931 35.5623 21.8097 35.5623 14.0637C35.5623 6.29652 41.848 0 49.6017 0C57.3344 0 63.6069 6.26234 63.6409 14.0004C63.6389 14.1248 63.6378 14.2496 63.6378 14.3745C63.6378 26.4554 73.4144 36.2488 85.4743 36.2488C85.558 36.2488 85.6415 36.2483 85.7249 36.2474C85.7464 36.2483 85.7674 36.2488 85.7879 36.2488C93.5416 36.2488 99.8273 42.5453 99.8273 50.3125C99.8273 58.0594 93.5744 64.3433 85.8485 64.376C85.724 64.3739 85.5993 64.3729 85.4743 64.3729C73.4158 64.3729 63.6402 74.164 63.6378 86.2429Z" fill="white"/>
</svg>
